<svg xmlns="http://www.w3.org/2000/svg" viewBox="0 0 27.857 27.857" width="512" height="512"><g fill="#fff"><path d="M2.203 5.33l10.034 7.95c.455.36 1.082.52 1.69.49.61.03 1.236-.13 1.69-.49l10.035-7.95c.804-.632.622-1.15-.398-1.15H2.603c-1.02 0-1.203.518-.4 1.15z"/><path d="M26.377 7.428l-10.965 8.325c-.41.308-.947.458-1.482.45-.536.008-1.073-.143-1.483-.45L1.48 7.428C.666 6.81 0 7.142 0 8.163v13.66c0 1.02.836 1.856 1.857 1.856H26c1.02 0 1.857-.837 1.857-1.858V8.162c0-1.02-.666-1.35-1.48-.734z"/></g></svg>