<svg xmlns="http://www.w3.org/2000/svg" width="512" height="512" viewBox="0 0 97.75 97.75"><path d="M48.875 0C21.882 0 0 21.882 0 48.875S21.882 97.75 48.875 97.75 97.75 75.868 97.75 48.875 75.868 0 48.875 0zM30.562 81.966h-13.74V37.758h13.74v44.208zm-6.867-50.25a7.968 7.968 0 0 1-7.97-7.97 7.968 7.968 0 0 1 7.97-7.963c4.392 0 7.962 3.57 7.962 7.964 0 4.4-3.57 7.968-7.962 7.968zm58.328 50.25h-13.73v-21.5c0-5.126-.094-11.72-7.14-11.72-7.147 0-8.246 5.584-8.246 11.35v21.87H39.18V37.757h13.177v6.04h.185c1.835-3.475 6.315-7.14 13-7.14 13.913 0 16.48 9.157 16.48 21.06v24.248z" fill="#fff"/></svg>